<svg width="88" height="82" viewBox="0 0 88 82" fill="none" xmlns="http://www.w3.org/2000/svg">
<path d="M83.5808 1L49.7742 26.0324L55.9678 11.3226L83.5808 1Z" fill="#E17726" stroke="#E17726" stroke-width="0.25" stroke-linecap="round" stroke-linejoin="round"/>
<path d="M5.38696 1L38.9356 26.2905L33 11.3226L5.38696 1Z" fill="#E27625" stroke="#E27625" stroke-width="0.25" stroke-linecap="round" stroke-linejoin="round"/>
<path d="M71.1939 59.0649L62.1616 72.7424L81.5166 78.1618L86.936 59.3229L71.1939 59.0649Z" fill="#E27625" stroke="#E27625" stroke-width="0.25" stroke-linecap="round" stroke-linejoin="round"/>
<path d="M1.77368 59.5806L7.19307 78.4195L26.548 73.0001L17.5157 59.3226L1.77368 59.5806Z" fill="#E27625" stroke="#E27625" stroke-width="0.25" stroke-linecap="round" stroke-linejoin="round"/>
<path d="M25.5161 35.8387L20.0967 43.8387L39.1936 44.6129L38.6774 23.9677L25.5161 35.8387Z" fill="#E27625" stroke="#E27625" stroke-width="0.25" stroke-linecap="round" stroke-linejoin="round"/>
<path d="M63.4514 35.8387L50.032 23.9677L49.5159 44.871L68.6128 44.0968L63.4514 35.8387Z" fill="#E27625" stroke="#E27625" stroke-width="0.25" stroke-linecap="round" stroke-linejoin="round"/>
<path d="M26.5483 73.0003L38.1613 67.3229L28.0967 59.5809L26.5483 73.0003Z" fill="#E27625" stroke="#E27625" stroke-width="0.25" stroke-linecap="round" stroke-linejoin="round"/>
<path d="M50.8062 67.3229L62.4191 73.0003L60.8707 59.5809L50.8062 67.3229Z" fill="#E27625" stroke="#E27625" stroke-width="0.25" stroke-linecap="round" stroke-linejoin="round"/>
<path d="M62.1616 73.0003L50.5486 67.3229L51.5808 74.8068V77.9036L62.1616 73.0003Z" fill="#D5BFB2" stroke="#D5BFB2" stroke-width="0.25" stroke-linecap="round" stroke-linejoin="round"/>
<path d="M26.5483 73L37.3871 78.1613V75.0645L38.4194 67.5806L26.5483 73Z" fill="#D5BFB2" stroke="#D5BFB2" stroke-width="0.25" stroke-linecap="round" stroke-linejoin="round"/>
<path d="M37.3871 54.6778L27.8386 51.839L34.5483 48.7422L37.3871 54.6778Z" fill="#233447" stroke="#233447" stroke-width="0.25" stroke-linecap="round" stroke-linejoin="round"/>
<path d="M51.323 54.6778L54.1617 48.7422L60.8714 51.839L51.323 54.6778Z" fill="#233447" stroke="#233447" stroke-width="0.25" stroke-linecap="round" stroke-linejoin="round"/>
<path d="M26.5482 73.0001L28.0966 59.3226L17.5159 59.5806L26.5482 73.0001Z" fill="#CC6228" stroke="#CC6228" stroke-width="0.25" stroke-linecap="round" stroke-linejoin="round"/>
<path d="M60.6128 59.0649L62.1612 72.7424L71.1935 59.3229L60.6128 59.0649Z" fill="#CC6228" stroke="#CC6228" stroke-width="0.25" stroke-linecap="round" stroke-linejoin="round"/>
<path d="M68.6128 44.0969L49.5159 44.8711L51.3223 54.6776L54.1611 48.7421L60.8708 51.8389L68.6128 44.0969Z" fill="#CC6228" stroke="#CC6228" stroke-width="0.25" stroke-linecap="round" stroke-linejoin="round"/>
<path d="M27.8387 51.8389L34.5484 48.7421L37.3871 54.6776L39.1936 44.8711L20.0967 44.0969L27.8387 51.8389Z" fill="#CC6228" stroke="#CC6228" stroke-width="0.25" stroke-linecap="round" stroke-linejoin="round"/>
<path d="M20.0967 44.0969L28.0967 59.839L27.8387 52.097L20.0967 44.0969Z" fill="#E27525" stroke="#E27525" stroke-width="0.25" stroke-linecap="round" stroke-linejoin="round"/>
<path d="M60.8709 51.8387L60.6128 59.5807L68.6128 43.8386L60.8709 51.8387Z" fill="#E27525" stroke="#E27525" stroke-width="0.25" stroke-linecap="round" stroke-linejoin="round"/>
<path d="M39.1934 44.8712L37.387 54.6777L39.7096 66.2907L40.2257 51.0648L39.1934 44.8712Z" fill="#E27525" stroke="#E27525" stroke-width="0.25" stroke-linecap="round" stroke-linejoin="round"/>
<path d="M49.5162 44.8712L48.4839 51.0648L49 66.2907L51.3226 54.6777L49.5162 44.8712Z" fill="#E27525" stroke="#E27525" stroke-width="0.25" stroke-linecap="round" stroke-linejoin="round"/>
<path d="M51.3226 54.6777L49 66.2906L50.5484 67.3229L60.613 59.5809L60.871 51.8389L51.3226 54.6777Z" fill="#F5841F" stroke="#F5841F" stroke-width="0.25" stroke-linecap="round" stroke-linejoin="round"/>
<path d="M27.8386 51.8389L28.0967 59.5809L38.1613 67.3229L39.7097 66.2906L37.3871 54.6777L27.8386 51.8389Z" fill="#F5841F" stroke="#F5841F" stroke-width="0.25" stroke-linecap="round" stroke-linejoin="round"/>
<path d="M51.5805 77.9033V74.8065L50.8063 74.0323H37.903L37.1288 74.8065V77.9033L26.29 72.7419L30.161 75.8387L37.6449 81.0001H50.8063L58.5483 75.8387L62.1612 72.7419L51.5805 77.9033Z" fill="#C0AC9D" stroke="#C0AC9D" stroke-width="0.25" stroke-linecap="round" stroke-linejoin="round"/>
<path d="M50.8067 67.3226L49.2583 66.2903H39.7098L38.1614 67.3226L37.1292 74.8065L37.9033 74.0323H50.8067L51.5809 74.8065L50.8067 67.3226Z" fill="#161616" stroke="#161616" stroke-width="0.25" stroke-linecap="round" stroke-linejoin="round"/>
<path d="M84.8709 27.8389L87.7096 13.9033L83.5806 1L50.8062 25.2582L63.4514 35.8389L81.258 41.0003L85.1289 36.3551L83.3225 35.0647L86.1612 32.4841L84.0967 30.9357L86.9354 28.8711L84.8709 27.8389Z" fill="#763E1A" stroke="#763E1A" stroke-width="0.25" stroke-linecap="round" stroke-linejoin="round"/>
<path d="M1 13.9033L3.83873 27.8389L2.03226 29.1292L4.87099 31.1937L2.80646 32.7421L5.64519 35.3228L3.83873 36.6131L7.70972 41.2583L25.5163 36.097L38.1615 25.5163L5.38712 1L1 13.9033Z" fill="#763E1A" stroke="#763E1A" stroke-width="0.25" stroke-linecap="round" stroke-linejoin="round"/>
<path d="M81 41.0003L63.1935 35.8389L68.6128 43.839L60.6128 59.581L71.1935 59.3229H86.9355L81 41.0003Z" fill="#F5841F" stroke="#F5841F" stroke-width="0.25" stroke-linecap="round" stroke-linejoin="round"/>
<path d="M25.5158 35.8389L7.7092 41.0003L1.77368 59.3229H17.5157L28.0964 59.581L20.0964 43.839L25.5158 35.8389Z" fill="#F5841F" stroke="#F5841F" stroke-width="0.25" stroke-linecap="round" stroke-linejoin="round"/>
<path d="M49.516 44.8712L50.5483 25.2582L55.7096 11.3226H32.7417L37.903 25.2582L38.9353 44.8712L39.4514 51.0648V66.2907H48.9999V51.0648L49.516 44.8712Z" fill="#F5841F" stroke="#F5841F" stroke-width="0.25" stroke-linecap="round" stroke-linejoin="round"/>
</svg>
